<mxfile host="Electron" modified="2024-05-05T14:33:55.733Z" agent="Mozilla/5.0 (Windows NT 10.0; Win64; x64) AppleWebKit/537.36 (KHTML, like Gecko) draw.io/24.2.5 Chrome/120.0.6099.109 Electron/28.1.0 Safari/537.36" etag="6uuZNA-cjQxNPl5XdEz_" version="24.2.5" type="device">
  <diagram name="Page-1" id="v7BnbKLMeGMxZplOQeK_">
    <mxGraphModel dx="2140" dy="621" grid="1" gridSize="10" guides="1" tooltips="1" connect="1" arrows="1" fold="1" page="1" pageScale="1" pageWidth="850" pageHeight="1100" math="0" shadow="0">
      <root>
        <mxCell id="0" />
        <mxCell id="1" parent="0" />
        <mxCell id="Jr6K7Onb9stcLLK0uTar-8" value="" style="shape=table;startSize=0;container=1;collapsible=0;childLayout=tableLayout;" vertex="1" parent="1">
          <mxGeometry y="40" width="300" height="40" as="geometry" />
        </mxCell>
        <mxCell id="Jr6K7Onb9stcLLK0uTar-9" value="" style="shape=tableRow;horizontal=0;startSize=0;swimlaneHead=0;swimlaneBody=0;strokeColor=inherit;top=0;left=0;bottom=0;right=0;collapsible=0;dropTarget=0;fillColor=none;points=[[0,0.5],[1,0.5]];portConstraint=eastwest;" vertex="1" parent="Jr6K7Onb9stcLLK0uTar-8">
          <mxGeometry width="300" height="40" as="geometry" />
        </mxCell>
        <mxCell id="Jr6K7Onb9stcLLK0uTar-10" value="ID" style="shape=partialRectangle;html=1;whiteSpace=wrap;connectable=0;strokeColor=inherit;overflow=hidden;fillColor=none;top=0;left=0;bottom=0;right=0;pointerEvents=1;" vertex="1" parent="Jr6K7Onb9stcLLK0uTar-9">
          <mxGeometry width="60" height="40" as="geometry">
            <mxRectangle width="60" height="40" as="alternateBounds" />
          </mxGeometry>
        </mxCell>
        <mxCell id="Jr6K7Onb9stcLLK0uTar-11" value="Name" style="shape=partialRectangle;html=1;whiteSpace=wrap;connectable=0;strokeColor=inherit;overflow=hidden;fillColor=none;top=0;left=0;bottom=0;right=0;pointerEvents=1;" vertex="1" parent="Jr6K7Onb9stcLLK0uTar-9">
          <mxGeometry x="60" width="60" height="40" as="geometry">
            <mxRectangle width="60" height="40" as="alternateBounds" />
          </mxGeometry>
        </mxCell>
        <mxCell id="Jr6K7Onb9stcLLK0uTar-12" value="PhoneNum" style="shape=partialRectangle;html=1;whiteSpace=wrap;connectable=0;strokeColor=inherit;overflow=hidden;fillColor=none;top=0;left=0;bottom=0;right=0;pointerEvents=1;" vertex="1" parent="Jr6K7Onb9stcLLK0uTar-9">
          <mxGeometry x="120" width="60" height="40" as="geometry">
            <mxRectangle width="60" height="40" as="alternateBounds" />
          </mxGeometry>
        </mxCell>
        <mxCell id="Jr6K7Onb9stcLLK0uTar-13" value="City" style="shape=partialRectangle;html=1;whiteSpace=wrap;connectable=0;strokeColor=inherit;overflow=hidden;fillColor=none;top=0;left=0;bottom=0;right=0;pointerEvents=1;" vertex="1" parent="Jr6K7Onb9stcLLK0uTar-9">
          <mxGeometry x="180" width="60" height="40" as="geometry">
            <mxRectangle width="60" height="40" as="alternateBounds" />
          </mxGeometry>
        </mxCell>
        <mxCell id="Jr6K7Onb9stcLLK0uTar-14" value="Street" style="shape=partialRectangle;html=1;whiteSpace=wrap;connectable=0;strokeColor=inherit;overflow=hidden;fillColor=none;top=0;left=0;bottom=0;right=0;pointerEvents=1;" vertex="1" parent="Jr6K7Onb9stcLLK0uTar-9">
          <mxGeometry x="240" width="60" height="40" as="geometry">
            <mxRectangle width="60" height="40" as="alternateBounds" />
          </mxGeometry>
        </mxCell>
        <mxCell id="Jr6K7Onb9stcLLK0uTar-15" value="Musican" style="text;html=1;align=center;verticalAlign=middle;resizable=0;points=[];autosize=1;strokeColor=none;fillColor=none;" vertex="1" parent="1">
          <mxGeometry width="70" height="30" as="geometry" />
        </mxCell>
        <mxCell id="Jr6K7Onb9stcLLK0uTar-16" value="" style="shape=table;startSize=0;container=1;collapsible=0;childLayout=tableLayout;" vertex="1" parent="1">
          <mxGeometry y="170" width="300" height="40" as="geometry" />
        </mxCell>
        <mxCell id="Jr6K7Onb9stcLLK0uTar-17" value="" style="shape=tableRow;horizontal=0;startSize=0;swimlaneHead=0;swimlaneBody=0;strokeColor=inherit;top=0;left=0;bottom=0;right=0;collapsible=0;dropTarget=0;fillColor=none;points=[[0,0.5],[1,0.5]];portConstraint=eastwest;" vertex="1" parent="Jr6K7Onb9stcLLK0uTar-16">
          <mxGeometry width="300" height="40" as="geometry" />
        </mxCell>
        <mxCell id="Jr6K7Onb9stcLLK0uTar-18" value="ID" style="shape=partialRectangle;html=1;whiteSpace=wrap;connectable=0;strokeColor=inherit;overflow=hidden;fillColor=none;top=0;left=0;bottom=0;right=0;pointerEvents=1;" vertex="1" parent="Jr6K7Onb9stcLLK0uTar-17">
          <mxGeometry width="60" height="40" as="geometry">
            <mxRectangle width="60" height="40" as="alternateBounds" />
          </mxGeometry>
        </mxCell>
        <mxCell id="Jr6K7Onb9stcLLK0uTar-19" value="Title" style="shape=partialRectangle;html=1;whiteSpace=wrap;connectable=0;strokeColor=inherit;overflow=hidden;fillColor=none;top=0;left=0;bottom=0;right=0;pointerEvents=1;" vertex="1" parent="Jr6K7Onb9stcLLK0uTar-17">
          <mxGeometry x="60" width="60" height="40" as="geometry">
            <mxRectangle width="60" height="40" as="alternateBounds" />
          </mxGeometry>
        </mxCell>
        <mxCell id="Jr6K7Onb9stcLLK0uTar-20" value="Date" style="shape=partialRectangle;html=1;whiteSpace=wrap;connectable=0;strokeColor=inherit;overflow=hidden;fillColor=none;top=0;left=0;bottom=0;right=0;pointerEvents=1;" vertex="1" parent="Jr6K7Onb9stcLLK0uTar-17">
          <mxGeometry x="120" width="60" height="40" as="geometry">
            <mxRectangle width="60" height="40" as="alternateBounds" />
          </mxGeometry>
        </mxCell>
        <mxCell id="Jr6K7Onb9stcLLK0uTar-21" value="MusicanID" style="shape=partialRectangle;html=1;whiteSpace=wrap;connectable=0;strokeColor=inherit;overflow=hidden;fillColor=none;top=0;left=0;bottom=0;right=0;pointerEvents=1;" vertex="1" parent="Jr6K7Onb9stcLLK0uTar-17">
          <mxGeometry x="180" width="60" height="40" as="geometry">
            <mxRectangle width="60" height="40" as="alternateBounds" />
          </mxGeometry>
        </mxCell>
        <mxCell id="Jr6K7Onb9stcLLK0uTar-51" value="SongsTitle" style="shape=partialRectangle;html=1;whiteSpace=wrap;connectable=0;strokeColor=inherit;overflow=hidden;fillColor=none;top=0;left=0;bottom=0;right=0;pointerEvents=1;" vertex="1" parent="Jr6K7Onb9stcLLK0uTar-17">
          <mxGeometry x="240" width="60" height="40" as="geometry">
            <mxRectangle width="60" height="40" as="alternateBounds" />
          </mxGeometry>
        </mxCell>
        <mxCell id="Jr6K7Onb9stcLLK0uTar-22" value="Album" style="text;html=1;align=center;verticalAlign=middle;resizable=0;points=[];autosize=1;strokeColor=none;fillColor=none;" vertex="1" parent="1">
          <mxGeometry y="128" width="60" height="30" as="geometry" />
        </mxCell>
        <mxCell id="Jr6K7Onb9stcLLK0uTar-23" style="edgeStyle=orthogonalEdgeStyle;rounded=0;orthogonalLoop=1;jettySize=auto;html=1;entryX=0.116;entryY=0.98;entryDx=0;entryDy=0;entryPerimeter=0;" edge="1" parent="1" source="Jr6K7Onb9stcLLK0uTar-17" target="Jr6K7Onb9stcLLK0uTar-9">
          <mxGeometry relative="1" as="geometry" />
        </mxCell>
        <mxCell id="Jr6K7Onb9stcLLK0uTar-24" value="Instrument" style="text;html=1;align=center;verticalAlign=middle;resizable=0;points=[];autosize=1;strokeColor=none;fillColor=none;" vertex="1" parent="1">
          <mxGeometry y="238" width="80" height="30" as="geometry" />
        </mxCell>
        <mxCell id="Jr6K7Onb9stcLLK0uTar-25" value="" style="shape=table;startSize=0;container=1;collapsible=0;childLayout=tableLayout;" vertex="1" parent="1">
          <mxGeometry x="10" y="280" width="120" height="40" as="geometry" />
        </mxCell>
        <mxCell id="Jr6K7Onb9stcLLK0uTar-26" value="" style="shape=tableRow;horizontal=0;startSize=0;swimlaneHead=0;swimlaneBody=0;strokeColor=inherit;top=0;left=0;bottom=0;right=0;collapsible=0;dropTarget=0;fillColor=none;points=[[0,0.5],[1,0.5]];portConstraint=eastwest;" vertex="1" parent="Jr6K7Onb9stcLLK0uTar-25">
          <mxGeometry width="120" height="40" as="geometry" />
        </mxCell>
        <mxCell id="Jr6K7Onb9stcLLK0uTar-27" value="Name" style="shape=partialRectangle;html=1;whiteSpace=wrap;connectable=0;strokeColor=inherit;overflow=hidden;fillColor=none;top=0;left=0;bottom=0;right=0;pointerEvents=1;" vertex="1" parent="Jr6K7Onb9stcLLK0uTar-26">
          <mxGeometry width="60" height="40" as="geometry">
            <mxRectangle width="60" height="40" as="alternateBounds" />
          </mxGeometry>
        </mxCell>
        <mxCell id="Jr6K7Onb9stcLLK0uTar-28" value="Key" style="shape=partialRectangle;html=1;whiteSpace=wrap;connectable=0;strokeColor=inherit;overflow=hidden;fillColor=none;top=0;left=0;bottom=0;right=0;pointerEvents=1;" vertex="1" parent="Jr6K7Onb9stcLLK0uTar-26">
          <mxGeometry x="60" width="60" height="40" as="geometry">
            <mxRectangle width="60" height="40" as="alternateBounds" />
          </mxGeometry>
        </mxCell>
        <mxCell id="Jr6K7Onb9stcLLK0uTar-30" value="" style="shape=table;startSize=0;container=1;collapsible=0;childLayout=tableLayout;" vertex="1" parent="1">
          <mxGeometry x="10" y="390" width="120" height="40" as="geometry" />
        </mxCell>
        <mxCell id="Jr6K7Onb9stcLLK0uTar-31" value="" style="shape=tableRow;horizontal=0;startSize=0;swimlaneHead=0;swimlaneBody=0;strokeColor=inherit;top=0;left=0;bottom=0;right=0;collapsible=0;dropTarget=0;fillColor=none;points=[[0,0.5],[1,0.5]];portConstraint=eastwest;" vertex="1" parent="Jr6K7Onb9stcLLK0uTar-30">
          <mxGeometry width="120" height="40" as="geometry" />
        </mxCell>
        <mxCell id="Jr6K7Onb9stcLLK0uTar-32" value="Name" style="shape=partialRectangle;html=1;whiteSpace=wrap;connectable=0;strokeColor=inherit;overflow=hidden;fillColor=none;top=0;left=0;bottom=0;right=0;pointerEvents=1;" vertex="1" parent="Jr6K7Onb9stcLLK0uTar-31">
          <mxGeometry width="60" height="40" as="geometry">
            <mxRectangle width="60" height="40" as="alternateBounds" />
          </mxGeometry>
        </mxCell>
        <mxCell id="Jr6K7Onb9stcLLK0uTar-33" value="MusicianID" style="shape=partialRectangle;html=1;whiteSpace=wrap;connectable=0;strokeColor=inherit;overflow=hidden;fillColor=none;top=0;left=0;bottom=0;right=0;pointerEvents=1;" vertex="1" parent="Jr6K7Onb9stcLLK0uTar-31">
          <mxGeometry x="60" width="60" height="40" as="geometry">
            <mxRectangle width="60" height="40" as="alternateBounds" />
          </mxGeometry>
        </mxCell>
        <mxCell id="Jr6K7Onb9stcLLK0uTar-34" value="MusicanInstrument" style="text;html=1;align=center;verticalAlign=middle;resizable=0;points=[];autosize=1;strokeColor=none;fillColor=none;" vertex="1" parent="1">
          <mxGeometry x="-10" y="360" width="120" height="30" as="geometry" />
        </mxCell>
        <mxCell id="Jr6K7Onb9stcLLK0uTar-35" style="edgeStyle=orthogonalEdgeStyle;rounded=0;orthogonalLoop=1;jettySize=auto;html=1;entryX=0;entryY=0.34;entryDx=0;entryDy=0;entryPerimeter=0;" edge="1" parent="1" source="Jr6K7Onb9stcLLK0uTar-31" target="Jr6K7Onb9stcLLK0uTar-26">
          <mxGeometry relative="1" as="geometry">
            <Array as="points">
              <mxPoint x="-10" y="410" />
              <mxPoint x="-10" y="294" />
            </Array>
          </mxGeometry>
        </mxCell>
        <mxCell id="Jr6K7Onb9stcLLK0uTar-36" style="edgeStyle=orthogonalEdgeStyle;rounded=0;orthogonalLoop=1;jettySize=auto;html=1;entryX=0;entryY=0.5;entryDx=0;entryDy=0;" edge="1" parent="1" source="Jr6K7Onb9stcLLK0uTar-31" target="Jr6K7Onb9stcLLK0uTar-9">
          <mxGeometry relative="1" as="geometry">
            <Array as="points">
              <mxPoint x="110" y="360" />
              <mxPoint x="-20" y="360" />
              <mxPoint x="-20" y="60" />
            </Array>
          </mxGeometry>
        </mxCell>
        <mxCell id="Jr6K7Onb9stcLLK0uTar-37" value="Song" style="text;html=1;align=center;verticalAlign=middle;resizable=0;points=[];autosize=1;strokeColor=none;fillColor=none;" vertex="1" parent="1">
          <mxGeometry x="-20" y="460" width="50" height="30" as="geometry" />
        </mxCell>
        <mxCell id="Jr6K7Onb9stcLLK0uTar-38" value="" style="shape=table;startSize=0;container=1;collapsible=0;childLayout=tableLayout;" vertex="1" parent="1">
          <mxGeometry y="490" width="120" height="40" as="geometry" />
        </mxCell>
        <mxCell id="Jr6K7Onb9stcLLK0uTar-39" value="" style="shape=tableRow;horizontal=0;startSize=0;swimlaneHead=0;swimlaneBody=0;strokeColor=inherit;top=0;left=0;bottom=0;right=0;collapsible=0;dropTarget=0;fillColor=none;points=[[0,0.5],[1,0.5]];portConstraint=eastwest;" vertex="1" parent="Jr6K7Onb9stcLLK0uTar-38">
          <mxGeometry width="120" height="40" as="geometry" />
        </mxCell>
        <mxCell id="Jr6K7Onb9stcLLK0uTar-40" value="Title" style="shape=partialRectangle;html=1;whiteSpace=wrap;connectable=0;strokeColor=inherit;overflow=hidden;fillColor=none;top=0;left=0;bottom=0;right=0;pointerEvents=1;" vertex="1" parent="Jr6K7Onb9stcLLK0uTar-39">
          <mxGeometry width="60" height="40" as="geometry">
            <mxRectangle width="60" height="40" as="alternateBounds" />
          </mxGeometry>
        </mxCell>
        <mxCell id="Jr6K7Onb9stcLLK0uTar-41" value="Author" style="shape=partialRectangle;html=1;whiteSpace=wrap;connectable=0;strokeColor=inherit;overflow=hidden;fillColor=none;top=0;left=0;bottom=0;right=0;pointerEvents=1;" vertex="1" parent="Jr6K7Onb9stcLLK0uTar-39">
          <mxGeometry x="60" width="60" height="40" as="geometry">
            <mxRectangle width="60" height="40" as="alternateBounds" />
          </mxGeometry>
        </mxCell>
        <mxCell id="Jr6K7Onb9stcLLK0uTar-43" value="" style="shape=table;startSize=0;container=1;collapsible=0;childLayout=tableLayout;" vertex="1" parent="1">
          <mxGeometry y="590" width="120" height="40" as="geometry" />
        </mxCell>
        <mxCell id="Jr6K7Onb9stcLLK0uTar-44" value="" style="shape=tableRow;horizontal=0;startSize=0;swimlaneHead=0;swimlaneBody=0;strokeColor=inherit;top=0;left=0;bottom=0;right=0;collapsible=0;dropTarget=0;fillColor=none;points=[[0,0.5],[1,0.5]];portConstraint=eastwest;" vertex="1" parent="Jr6K7Onb9stcLLK0uTar-43">
          <mxGeometry width="120" height="40" as="geometry" />
        </mxCell>
        <mxCell id="Jr6K7Onb9stcLLK0uTar-45" value="MusicanID" style="shape=partialRectangle;html=1;whiteSpace=wrap;connectable=0;strokeColor=inherit;overflow=hidden;fillColor=none;top=0;left=0;bottom=0;right=0;pointerEvents=1;" vertex="1" parent="Jr6K7Onb9stcLLK0uTar-44">
          <mxGeometry width="60" height="40" as="geometry">
            <mxRectangle width="60" height="40" as="alternateBounds" />
          </mxGeometry>
        </mxCell>
        <mxCell id="Jr6K7Onb9stcLLK0uTar-46" value="Title" style="shape=partialRectangle;html=1;whiteSpace=wrap;connectable=0;strokeColor=inherit;overflow=hidden;fillColor=none;top=0;left=0;bottom=0;right=0;pointerEvents=1;" vertex="1" parent="Jr6K7Onb9stcLLK0uTar-44">
          <mxGeometry x="60" width="60" height="40" as="geometry">
            <mxRectangle width="60" height="40" as="alternateBounds" />
          </mxGeometry>
        </mxCell>
        <mxCell id="Jr6K7Onb9stcLLK0uTar-48" value="MusicanSongs" style="text;html=1;align=center;verticalAlign=middle;resizable=0;points=[];autosize=1;strokeColor=none;fillColor=none;" vertex="1" parent="1">
          <mxGeometry x="-10" y="550" width="100" height="30" as="geometry" />
        </mxCell>
        <mxCell id="Jr6K7Onb9stcLLK0uTar-49" style="edgeStyle=orthogonalEdgeStyle;rounded=0;orthogonalLoop=1;jettySize=auto;html=1;entryX=0;entryY=0.5;entryDx=0;entryDy=0;" edge="1" parent="1" source="Jr6K7Onb9stcLLK0uTar-44" target="Jr6K7Onb9stcLLK0uTar-39">
          <mxGeometry relative="1" as="geometry">
            <Array as="points">
              <mxPoint x="90" y="570" />
              <mxPoint x="-20" y="570" />
              <mxPoint x="-20" y="510" />
            </Array>
          </mxGeometry>
        </mxCell>
        <mxCell id="Jr6K7Onb9stcLLK0uTar-50" style="edgeStyle=orthogonalEdgeStyle;rounded=0;orthogonalLoop=1;jettySize=auto;html=1;entryX=0;entryY=0.5;entryDx=0;entryDy=0;" edge="1" parent="1" source="Jr6K7Onb9stcLLK0uTar-44" target="Jr6K7Onb9stcLLK0uTar-9">
          <mxGeometry relative="1" as="geometry">
            <Array as="points">
              <mxPoint x="-20" y="610" />
              <mxPoint x="-20" y="60" />
            </Array>
          </mxGeometry>
        </mxCell>
        <mxCell id="Jr6K7Onb9stcLLK0uTar-52" style="edgeStyle=orthogonalEdgeStyle;rounded=0;orthogonalLoop=1;jettySize=auto;html=1;" edge="1" parent="1" source="Jr6K7Onb9stcLLK0uTar-17">
          <mxGeometry relative="1" as="geometry">
            <mxPoint x="40" y="80" as="targetPoint" />
            <Array as="points">
              <mxPoint x="210" y="126" />
              <mxPoint x="41" y="126" />
            </Array>
          </mxGeometry>
        </mxCell>
        <mxCell id="Jr6K7Onb9stcLLK0uTar-54" style="edgeStyle=orthogonalEdgeStyle;rounded=0;orthogonalLoop=1;jettySize=auto;html=1;entryX=0.347;entryY=-0.01;entryDx=0;entryDy=0;entryPerimeter=0;" edge="1" parent="1" source="Jr6K7Onb9stcLLK0uTar-17" target="Jr6K7Onb9stcLLK0uTar-39">
          <mxGeometry relative="1" as="geometry">
            <mxPoint x="40" y="480" as="targetPoint" />
            <Array as="points">
              <mxPoint x="340" y="190" />
              <mxPoint x="340" y="470" />
              <mxPoint x="42" y="470" />
            </Array>
          </mxGeometry>
        </mxCell>
      </root>
    </mxGraphModel>
  </diagram>
</mxfile>
